PathFileType	4	(X/Y/Z)	C:\Users\Basilio\Documents\Thesis Gigler\squatting_fais\c3dfiles\044\SLS_back_pre5\markers_experimental.trc
DataRate	CameraRate	NumFrames	NumMarkers	Units	OrigDataRate	OrigDataStartFrame	OrigNumFrames
200.000000	200.000000	4	63	mm	200.000000	870	1393
Frame#	Time	FHD			LBHD			RBHD			C7			T10			LSHO			LUUPA			LMUPA			LDUPA			LLEP			LMEP			LUL			LRFIN			RSHO			RUPA1			RMUPA			RDUPA			RLEP			RMEP			RUL			RUFIN			LASI			RASI			USACR			LSACR			RSACR			LTHI1			LTHI2			LTHI3			LTHI4			LLFC			LMFC			LTIB1			LTIB2			LTIB3			LTIB4			LLMAL			LMMAL			LHEE			LMT1			LMT2			LMT5			RTHI			RTHI2			RTHI3			RTHI4			RLFC			RMFC			RTIB1			RTIB2			RTIB3			RTIB4			RLMAL			RHEE			RMT1			RMT2			RMT5			RMMAL			CLAV			LRAD			RRAD			*61			*62			
		X1	Y1	Z1	X2	Y2	Z2	X3	Y3	Z3	X4	Y4	Z4	X5	Y5	Z5	X6	Y6	Z6	X7	Y7	Z7	X8	Y8	Z8	X9	Y9	Z9	X10	Y10	Z10	X11	Y11	Z11	X12	Y12	Z12	X13	Y13	Z13	X14	Y14	Z14	X15	Y15	Z15	X16	Y16	Z16	X17	Y17	Z17	X18	Y18	Z18	X19	Y19	Z19	X20	Y20	Z20	X21	Y21	Z21	X22	Y22	Z22	X23	Y23	Z23	X24	Y24	Z24	X25	Y25	Z25	X26	Y26	Z26	X27	Y27	Z27	X28	Y28	Z28	X29	Y29	Z29	X30	Y30	Z30	X31	Y31	Z31	X32	Y32	Z32	X33	Y33	Z33	X34	Y34	Z34	X35	Y35	Z35	X36	Y36	Z36	X37	Y37	Z37	X38	Y38	Z38	X39	Y39	Z39	X40	Y40	Z40	X41	Y41	Z41	X42	Y42	Z42	X43	Y43	Z43	X44	Y44	Z44	X45	Y45	Z45	X46	Y46	Z46	X47	Y47	Z47	X48	Y48	Z48	X49	Y49	Z49	X50	Y50	Z50	X51	Y51	Z51	X52	Y52	Z52	X53	Y53	Z53	X54	Y54	Z54	X55	Y55	Z55	X56	Y56	Z56	X57	Y57	Z57	X58	Y58	Z58	X59	Y59	Z59	X60	Y60	Z60	X61	Y61	Z61	X62	Y62	Z62	X63	Y63	Z63	

871	4.350000000000001	-83.06573486328126	1628.198120117188	-1059.462524414063	-215.1751251220704	1586.640747070313	-1134.280883789063	-254.8738098144532	1566.735717773438	-973.8116455078127	-274.1264038085938	1417.605224609375	-1053.879028320313	-359.2463073730469	1140.798095703125	-995.686950683594	-193.2613220214844	1415.087036132813	-1198.739990234375	-42.11428833007813	1381.911499023438	-1307.010864257813	-11.42273712158203	1394.7568359375	-1269.236328125	27.14711570739747	1376.991943359375	-1313.298706054688	85.57333374023439	1376.454956054688	-1305.900634765625	76.48488616943361	1299.300415039063	-1285.888549804688	344.8164062500001	1393.739135742188	-1190.030883789063	350.7122497558594	1417.738525390625	-1089.880737304688	-179.5924835205078	1421.724853515625	-903.8693847656252	-33.61748123168946	1409.892456054688	-795.6814575195315	-1.868122577667237	1418.201416015625	-834.5205688476565	35.8538932800293	1409.741821289063	-788.4094238281252	97.77429962158206	1412.204711914063	-796.5405273437502	95.99063110351564	1329.307861328125	-795.9589843750002	344.6033020019532	1409.601196289063	-934.5825805664065	335.0111389160157	1385.295043945313	-1048.220825195313	-278.5755004882813	907.1486816406252	-1089.15625	-256.4089355468751	886.6802978515627	-877.6121215820315	-407.9421386718751	1004.755065917969	-958.7570800781252	-430.0187377929689	978.4260864257815	-984.229431152344	-416.5037841796876	975.9475097656252	-928.9204711914065	-299.8849792480469	711.9957885742189	-1158.44482421875	-229.6658935546876	664.7785644531251	-1158.417114257813	-190.8064575195313	689.5937500000001	-1150.890991210938	-223.8392791748047	605.4172363281251	-1142.885986328125	-138.9129791259766	482.1343383789064	-1119.213989257813	-134.8681945800782	487.4362182617189	-1000.372924804688	-170.0077819824219	320.1689147949219	-1023.647827148438	-210.7151031494141	278.2323913574219	-1091.065185546875	-183.7601013183594	269.8826599121094	-1050.794677734375	-232.2490386962891	211.0601348876954	-1014.786682128906	-326.4394531250001	121.2649993896485	-1056.87890625	-307.5434265136719	132.8513336181641	-969.5523071289065	-397.3054504394532	103.9247207641602	-1005.353637695313	-191.3012390136719	56.86383056640626	-979.7373657226565	-189.4212036132813	59.21720123291017	-1026.478271484375	-226.0724334716797	47.40671920776368	-1073.5068359375	-325.5752258300782	630.0521850585939	-787.1704711914065	-271.8659667968751	587.1453857421876	-786.7221679687502	-241.8346099853516	595.0221557617189	-797.2421875000002	-281.0056152343751	503.319793701172	-801.3796386718752	-289.7605285644532	424.6981506347657	-820.4086914062502	-298.0021362304688	420.1951904296876	-937.0997314453127	-383.9550170898438	338.0906372070313	-854.3350219726565	-474.0779418945314	389.7978820800782	-816.4351806640627	-467.8164062500001	345.9193115234376	-831.2258911132815	-512.2447509765626	322.7973327636719	-860.497741699219	-675.4063110351564	349.1450195312501	-858.8870849609377	-716.0443115234376	397.7967529296876	-913.4263916015627	-698.6536865234376	187.4624328613282	-929.983093261719	-704.6205444335939	179.7722320556641	-892.7303466796877	-737.5086669921876	215.4126586914063	-846.4107666015627	-659.6197509765626	328.4197998046876	-941.4846191406252	-146.9012451171875	1352.601806640625	-1057.30615234375	nan	nan	nan	nan	nan	nan	nan	nan	nan	nan	nan	nan	
872	4.355	-83.3278274536133	1629.1875	-1059.575927734375	-215.3911895751954	1587.84033203125	-1134.284912109375	-255.0733795166016	1568.186767578125	-973.9251708984377	-274.6051635742188	1418.675415039063	-1053.818725585938	-359.4563293457032	1141.790771484375	-995.7464599609377	-193.5081939697266	1416.101684570313	-1198.55126953125	-42.37926864624024	1383.025512695313	-1307.08056640625	-12.20069694519043	1396.1171875	-1269.0732421875	26.87841796875001	1378.249145507813	-1313.26318359375	86.06296539306642	1376.142211914063	-1305.785522460938	76.23508453369142	1300.077514648438	-1285.473266601563	344.3035278320313	1395.07568359375	-1189.82373046875	350.4240112304688	1418.343872070313	-1089.634521484375	-179.8762817382813	1422.613891601563	-903.744812011719	-33.9680290222168	1410.919799804688	-795.5025024414065	-2.198555707931519	1419.042602539063	-834.1479492187502	35.38013076782227	1410.6474609375	-788.209167480469	97.43070983886722	1413.324951171875	-796.308288574219	95.76900482177736	1330.203857421875	-795.7639160156252	344.3528747558594	1410.754760742188	-934.215026855469	334.5816955566407	1386.554565429688	-1047.950073242188	-279.3861999511719	908.5595703125002	-1088.812866210938	-256.1368103027344	887.6195068359377	-877.665222167969	-407.9489135742189	1005.692565917969	-958.7368774414065	-429.9616088867189	979.2287597656252	-984.243835449219	-416.5785217285157	976.6755981445315	-928.794128417969	-299.8481445312501	712.5241699218751	-1158.616333007813	-229.9007568359376	665.3291015625001	-1158.323364257813	-190.9545135498047	690.0345458984376	-1150.775634765625	-224.0314025878907	606.1512451171876	-1142.608276367188	-139.4878540039063	482.5906982421876	-1119.028076171875	-135.4756927490235	487.7992553710939	-1000.085083007813	-170.617431640625	320.4630432128907	-1023.492309570313	-210.9496765136719	278.4143981933594	-1090.921630859375	-183.919189453125	270.1067504882813	-1050.722045898438	-232.4425201416016	211.2191162109376	-1014.675964355469	-326.4075927734376	121.2753601074219	-1056.863159179688	-307.5870056152344	132.8840942382813	-969.4841918945315	-397.2381896972657	103.7449569702149	-1005.539611816406	-191.4103698730469	56.92663192749025	-979.7799072265627	-189.4373168945313	59.2470169067383	-1026.31982421875	-226.0059661865235	47.33146286010743	-1073.541625976563	-325.1803283691407	631.1422119140626	-787.4600219726565	-271.3527221679688	588.0561523437501	-786.9302368164065	-241.3504486083985	596.3491821289064	-797.4575195312502	-280.3776245117188	504.5053100585939	-801.8912353515627	-288.9151916503907	425.7208251953126	-820.9929809570315	-297.2194824218751	421.1803588867189	-937.8440551757815	-382.8961486816407	338.7970886230469	-853.0247192382815	-473.3758239746095	390.4805297851564	-816.735290527344	-467.3024291992189	346.8271484375001	-831.3359985351565	-511.483367919922	323.8574523925782	-860.6607055664065	-674.3476562500001	349.5692443847657	-858.5078125000002	-715.2518310546876	398.490203857422	-913.3601074218752	-698.2988891601564	188.6409301757813	-930.2318115234377	-704.0057373046876	180.9613800048828	-893.6289062500002	-736.9562988281251	216.0160064697266	-846.5491333007815	-658.8867187500001	329.3267822265626	-941.839782714844	-147.0984954833985	1353.962280273438	-1057.334228515625	nan	nan	nan	nan	nan	nan	nan	nan	nan	nan	nan	nan	
873	4.36	-83.57960510253908	1630.43896484375	-1059.5087890625	-215.8589324951172	1588.904174804688	-1134.191284179688	-255.5976867675782	1569.154052734375	-973.7789306640627	-275.2994384765626	1420.079956054688	-1053.98291015625	-359.5901184082032	1142.740600585938	-995.733581542969	-193.9814910888672	1417.4716796875	-1198.568969726563	-43.28723144531251	1383.312133789063	-1306.378173828125	-12.44367694854737	1397.178466796875	-1269.091674804688	26.52532386779786	1379.338134765625	-1313.161254882813	85.44448852539064	1378.053833007813	-1305.599975585938	76.10308837890626	1301.202514648438	-1285.726928710938	343.9214477539063	1396.32080078125	-1189.63671875	350.1661376953126	1419.725219726563	-1089.39697265625	-180.3912811279297	1423.72021484375	-903.577087402344	-34.30497741699219	1411.910766601563	-795.4461669921877	-2.514830589294434	1420.243774414063	-834.0270996093752	35.03092193603516	1411.786254882813	-787.8406982421877	97.09342956542972	1414.291137695313	-796.1041259765627	95.38871002197267	1331.480590820313	-795.5104980468752	343.8916015625001	1412.18994140625	-934.1048583984377	334.1320800781251	1387.822265625	-1047.681030273438	-278.6003417968751	909.3736572265627	-1089.12353515625	-255.8213348388672	888.8771972656252	-877.8892822265627	-408.1185607910157	1006.548461914063	-958.638854980469	-430.1795043945314	980.0889282226565	-984.1875610351565	-416.510223388672	977.7422485351565	-928.847106933594	-300.1368408203126	713.0733642578126	-1158.319702148438	-230.091049194336	665.9577636718751	-1158.207153320313	-190.5091857910157	690.0293579101564	-1150.739501953125	-224.4437408447266	606.6685791015626	-1142.469970703125	-139.7112731933594	482.6322021484376	-1118.802734375	-136.0813751220703	488.0445861816407	-999.9338378906252	-171.1977691650391	320.9175109863282	-1023.230651855469	-211.4095611572266	278.5935668945313	-1090.854858398438	-184.096435546875	270.2726745605469	-1050.641967773438	-232.5958557128907	211.2559051513672	-1014.645324707031	-326.4316101074219	121.2820053100586	-1056.880615234375	-307.6389770507813	132.8323516845703	-969.4873046875002	-397.2173767089845	103.694808959961	-1005.683654785156	-191.307846069336	56.86210250854494	-979.6035156250002	-189.4344940185547	59.24340438842775	-1026.32568359375	-226.0910797119141	47.45966339111329	-1073.4912109375	-324.5812988281251	632.2659301757814	-787.628845214844	-271.0174255371094	589.2480468750001	-787.070495605469	-240.6912689208985	597.4113769531251	-797.8638305664065	-279.8433532714844	505.6211547851564	-802.2080688476565	-288.2629699707032	426.7748107910157	-821.3765869140627	-297.0382995605469	422.024383544922	-938.3110351562502	-382.0457153320313	339.8249511718751	-854.1636352539065	-472.829071044922	391.584197998047	-817.1427001953127	-466.4396362304689	347.6239929199219	-831.5374145507815	-510.9491577148439	324.8503417968751	-860.572448730469	-673.4547729492189	350.2664184570313	-858.6817016601565	-714.4846801757814	399.5701293945314	-913.340515136719	-697.2770385742189	189.8006286621094	-930.8093261718752	-703.1322631835939	181.86279296875	-893.526550292969	-736.2802734375001	216.6660766601563	-846.611511230469	-658.2243652343751	330.1257324218751	-941.8933715820315	-147.3823852539063	1355.025146484375	-1057.269165039063	nan	nan	nan	nan	nan	nan	nan	nan	nan	nan	nan	nan	
874	4.365	-83.85787963867189	1631.213500976563	-1059.482788085938	-216.2431030273438	1590.03271484375	-1134.197265625	-255.6412658691407	1570.660766601563	-973.7282714843752	-275.5008239746094	1420.82421875	-1053.664184570313	-359.8727416992188	1143.859497070313	-995.8381347656252	-194.0886383056641	1418.622924804688	-1198.487915039063	-43.4235954284668	1384.612670898438	-1306.356079101563	-12.33355712890625	1398.17529296875	-1268.925537109375	25.73378944396973	1379.894775390625	-1312.597045898438	84.99949645996095	1379.106689453125	-1305.4140625	75.52195739746095	1302.577270507813	-1285.289428710938	343.6304931640626	1397.260131835938	-1189.27392578125	349.7141723632813	1420.899780273438	-1089.005126953125	-180.845687866211	1425.0654296875	-903.5666503906252	-34.71591567993165	1413.224853515625	-795.185485839844	-2.923584461212159	1421.551025390625	-833.882995605469	34.53907012939454	1413.185791015625	-787.6853027343752	96.52421569824222	1415.841796875	-795.8469238281252	95.05542755126955	1332.674926757813	-795.285827636719	343.6921691894532	1413.321655273438	-933.682312011719	333.6654357910157	1389.095581054688	-1047.41357421875	-278.5062255859376	910.0521240234377	-1089.239868164063	-256.0130615234376	889.8880615234377	-877.7904052734377	-407.943084716797	1007.755004882813	-958.9027099609377	-430.0492553710939	980.8734130859377	-984.2769165039065	-416.5424194335939	978.7727661132815	-928.8320922851565	-300.5461425781251	713.9727172851564	-1158.06884765625	-230.5218505859376	666.5173339843751	-1158.111450195313	-190.6836547851563	690.5641479492189	-1150.634765625	-225.1065216064454	607.0850830078126	-1142.359741210938	-140.304931640625	482.9694824218751	-1118.6845703125	-136.6658782958985	488.2883911132814	-999.7363891601565	-171.6045227050782	321.1936950683594	-1023.249633789063	-211.6890716552735	278.7694396972657	-1090.80078125	-184.4392700195313	270.5729370117188	-1050.484008789063	-232.9480438232422	211.3996124267579	-1014.6220703125	-326.4248962402344	121.3012313842774	-1056.870849609375	-307.7244262695313	132.8643341064453	-969.3889160156252	-397.2280273437501	103.6869659423828	-1005.590881347656	-191.310531616211	56.84999847412111	-979.632263183594	-189.4450225830078	59.25350570678712	-1026.319702148438	-226.0990447998047	47.34526443481446	-1073.443237304688	-323.9115600585938	633.2909545898439	-787.928405761719	-270.2824707031251	590.2806396484376	-787.6729125976565	-240.1755981445313	598.4604492187501	-798.011657714844	-278.9032897949219	506.644500732422	-802.6080322265627	-287.5820922851563	427.6531982421876	-821.6406860351565	-296.6484985351563	422.9462890625001	-939.129089355469	-381.4188537597657	340.5113830566407	-854.601501464844	-471.6173706054689	392.190399169922	-817.3734130859377	-465.6976013183595	348.7679443359376	-832.1074218750002	-509.9313964843751	325.4461059570313	-861.1826171875002	-672.8023681640626	350.8125305175782	-858.467956542969	-713.7068481445314	400.0640869140626	-913.1748046875002	-696.3982543945314	190.4680938720703	-931.0881347656252	-702.5648803710939	182.3187255859375	-893.654479980469	-735.4402465820314	217.2228698730469	-847.1077880859377	-657.3778686523439	330.8534851074219	-941.856384277344	-147.7417297363282	1356.18896484375	-1057.19287109375	nan	nan	nan	nan	nan	nan	nan	nan	nan	nan	nan	nan	
